<svg xmlns="http://www.w3.org/2000/svg" xmlns:xlink="http://www.w3.org/1999/xlink" width="1080" zoomAndPan="magnify" viewBox="0 0 810 809.999993" height="1080" preserveAspectRatio="xMidYMid meet" version="1.0"><defs><clipPath id="e0c027f484"><path d="M 102.003906 102.003906 L 708 102.003906 L 708 708 L 102.003906 708 Z M 102.003906 102.003906 " clip-rule="nonzero"/></clipPath><clipPath id="d180a8c456"><path d="M 388.738281 548.667969 L 441 548.667969 L 441 616 L 388.738281 616 Z M 388.738281 548.667969 " clip-rule="nonzero"/></clipPath></defs><path fill="#5d8975" d="M 405 226.636719 C 347.835938 226.636719 301.171875 273.09375 301.171875 330.261719 C 301.171875 387.628906 347.835938 434.085938 405 434.085938 C 462.164062 434.085938 508.824219 387.628906 508.824219 330.261719 C 508.824219 273.09375 462.164062 226.636719 405 226.636719 Z M 405 226.636719 " fill-opacity="1" fill-rule="nonzero"/><g clip-path="url(#e0c027f484)"><path fill="#5d8975" d="M 404.796875 102.207031 C 237.949219 102.207031 102.003906 237.949219 102.003906 405 C 102.003906 497.917969 144.222656 581.140625 210.273438 636.6875 C 210.273438 636.6875 210.273438 636.6875 210.273438 636.890625 C 262.996094 681.128906 330.867188 707.792969 404.796875 707.792969 C 510.238281 707.792969 606.390625 654.464844 662.140625 564.980469 C 692.238281 516.90625 707.992188 461.761719 707.992188 405 C 707.992188 348.238281 692.238281 292.890625 662.140625 245.019531 C 606.390625 155.535156 510.238281 102.207031 404.796875 102.207031 Z M 628.003906 543.570312 C 618.308594 559.121094 606.996094 572.859375 594.675781 585.785156 C 563.96875 522.761719 498.726562 480.746094 426.613281 480.746094 L 383.386719 480.746094 C 333.292969 480.746094 286.226562 500.339844 250.875 535.691406 C 236.128906 550.234375 224.414062 567.402344 215.324219 585.988281 C 170.28125 538.921875 142.40625 475.292969 142.40625 405 C 142.40625 260.371094 260.167969 142.605469 404.796875 142.605469 C 496.300781 142.605469 579.523438 188.863281 628.003906 266.429688 C 653.859375 308.042969 667.59375 355.914062 667.59375 405 C 667.59375 454.085938 653.859375 501.957031 628.003906 543.570312 Z M 628.003906 543.570312 " fill-opacity="1" fill-rule="nonzero"/></g><g clip-path="url(#d180a8c456)"><path fill="#5d8975" d="M 440.921875 610.902344 C 440.921875 592.9375 429.230469 578.386719 414.828125 578.386719 C 400.429688 578.386719 388.738281 592.9375 388.738281 610.902344 C 388.738281 613.703125 400.429688 615.984375 414.828125 615.984375 C 429.230469 615.984375 440.921875 613.703125 440.921875 610.902344 Z M 414.828125 548.671875 C 422.683594 548.671875 429.046875 555.035156 429.046875 562.890625 C 429.046875 570.746094 422.683594 577.105469 414.828125 577.105469 C 406.972656 577.105469 400.609375 570.746094 400.609375 562.890625 C 400.609375 555.035156 406.972656 548.671875 414.828125 548.671875 Z M 414.828125 548.671875 " fill-opacity="1" fill-rule="evenodd"/></g></svg>